<svg width="24" height="24" viewBox="0 0 24 24" fill="none" xmlns="http://www.w3.org/2000/svg">
<path d="M23.1946 4.91903L21.5122 4.91895V3.17746C21.5122 2.77875 21.2205 2.44001 20.8262 2.38102C20.7573 2.37068 19.1184 2.13262 17.1448 2.49173C14.9447 2.89205 13.19 3.87928 12 5.37171C10.8098 3.87928 9.05516 2.89205 6.85509 2.49173C4.88144 2.1327 3.24249 2.37068 3.17373 2.38102C2.77938 2.44009 2.48767 2.77884 2.48767 3.17746V4.91895H0.805331C0.360645 4.91895 0 5.27959 0 5.72436V20.9005C0 21.1612 0.126222 21.4058 0.338827 21.5569C0.551432 21.708 0.823997 21.7468 1.07022 21.661C1.13066 21.6401 7.16563 19.5805 11.6657 21.6331C11.8781 21.73 12.1219 21.73 12.3343 21.6331C16.8218 19.5863 22.8697 21.6403 22.9298 21.661C23.0161 21.6911 23.1055 21.7059 23.1945 21.7059C23.3596 21.7059 23.523 21.6551 23.6612 21.557C23.8738 21.4059 24 21.1613 24 20.9005V5.72444C23.9999 5.27967 23.6394 4.91903 23.1946 4.91903ZM1.61074 19.8229V6.52969H2.48767V17.255C2.48767 17.489 2.59005 17.7112 2.7671 17.8642C2.94415 18.0172 3.17963 18.0858 3.41106 18.0516C3.4555 18.0451 6.95416 17.5648 9.51027 19.3186C6.36159 18.7801 3.21025 19.4029 1.61074 19.8229ZM11.1946 18.5923C10.0688 17.5751 8.6024 16.8872 6.85509 16.5693C6.0142 16.4163 5.23408 16.3717 4.61025 16.3717C4.42504 16.3717 4.25356 16.3756 4.09849 16.3818V3.91701H4.09841C5.64628 3.84719 9.41168 4.01269 11.1946 7.03514V18.5923ZM12.8053 7.03522C14.5818 4.0257 18.3531 3.85269 19.9015 3.91903V16.3818C19.2241 16.3545 18.2353 16.3709 17.1448 16.5693C15.3975 16.8872 13.9311 17.575 12.8053 18.5923V7.03522ZM14.487 19.319C17.0434 17.5642 20.5439 18.045 20.5876 18.0515C20.8196 18.0863 21.0549 18.0181 21.2325 17.8652C21.4101 17.7122 21.5122 17.4895 21.5122 17.255V6.52977H22.3892V19.8229C20.7892 19.4028 17.6365 18.7797 14.487 19.319Z" fill="black"/>
</svg>
