<svg width="24" height="24" viewBox="0 0 24 24" fill="none" xmlns="http://www.w3.org/2000/svg">
<g clip-path="url(#clip0)">
<path d="M23.4903 8.99438H1.48213C1.20603 8.99438 0.981934 9.21848 0.981934 9.49459V21.499C0.981934 22.8775 2.10337 24 3.48285 24H21.4895C22.8691 24 23.9904 22.8775 23.9904 21.499V9.49459C23.9905 9.21844 23.7664 8.99438 23.4903 8.99438ZM22.9901 21.499C22.9901 22.3263 22.3169 22.9996 21.4896 22.9996H3.48289C2.65557 22.9996 1.98234 22.3263 1.98234 21.499V9.99474H22.9901V21.499Z" fill="black"/>
<path d="M23.9745 4.36562L23.1231 1.13544C22.9271 0.350128 22.1248 -0.143039 21.3295 0.0370277L1.176 4.81879C0.779857 4.90882 0.444717 5.14989 0.231638 5.49605C0.0185584 5.84217 -0.0444649 6.25032 0.0555565 6.64647L0.997906 10.3718C1.05394 10.5979 1.25802 10.749 1.48207 10.749C1.52207 10.749 1.5631 10.745 1.6061 10.734C1.8732 10.667 2.03526 10.3949 1.96722 10.1268L1.91221 9.90971L23.6013 4.98188C23.7333 4.95088 23.8483 4.86882 23.9184 4.75281C23.9895 4.63675 24.0085 4.49668 23.9745 4.36562ZM1.6672 8.93932L1.02496 6.40337C0.991951 6.27133 1.01394 6.13529 1.084 6.01923C1.15504 5.90421 1.26707 5.82416 1.4031 5.79213L21.5566 1.0114C21.5926 1.0024 21.6296 0.998416 21.6656 0.998416C21.8897 0.998416 22.0968 1.15246 22.1538 1.38354L22.875 4.11957L1.6672 8.93932Z" fill="black"/>
<path d="M5.70769 9.04643C5.45958 8.9254 5.16148 9.0234 5.03544 9.27053L3.03468 13.272C2.91163 13.5191 3.01165 13.8192 3.25878 13.9433C3.33179 13.9793 3.40785 13.9963 3.48288 13.9963C3.66594 13.9963 3.84301 13.8953 3.93103 13.7192L5.93178 9.71774C6.05483 9.47057 5.95476 9.17046 5.70769 9.04643Z" fill="black"/>
<path d="M10.7086 9.04643C10.4615 8.9254 10.1614 9.0234 10.0373 9.27053L8.03657 13.272C7.91352 13.5191 8.01355 13.8192 8.26067 13.9433C8.33368 13.9793 8.40974 13.9963 8.48477 13.9963C8.66784 13.9963 8.8449 13.8953 8.93194 13.7192L10.9327 9.71774C11.0557 9.47057 10.9557 9.17046 10.7086 9.04643Z" fill="black"/>
<path d="M15.7104 9.04643C15.4643 8.9254 15.1642 9.0234 15.0391 9.27053L13.0383 13.272C12.9153 13.5191 13.0153 13.8192 13.2624 13.9433C13.3354 13.9793 13.4115 13.9963 13.4865 13.9963C13.6696 13.9963 13.8467 13.8953 13.9337 13.7192L15.9345 9.71774C16.0575 9.47057 15.9574 9.17046 15.7104 9.04643Z" fill="black"/>
<path d="M20.7123 9.04643C20.4641 8.9254 20.1661 9.0234 20.041 9.27053L18.0402 13.272C17.9172 13.5191 18.0172 13.8192 18.2643 13.9433C18.3373 13.9793 18.4134 13.9963 18.4884 13.9963C18.6715 13.9963 18.8486 13.8953 18.9356 13.7192L20.9364 9.71774C21.0594 9.47057 20.9593 9.17046 20.7123 9.04643Z" fill="black"/>
<path d="M23.4903 12.9958H1.48213C1.20603 12.9958 0.981934 13.2199 0.981934 13.4961C0.981934 13.7722 1.20603 13.9963 1.48213 13.9963H23.4903C23.7674 13.9963 23.9905 13.7722 23.9905 13.4961C23.9905 13.2199 23.7664 12.9958 23.4903 12.9958Z" fill="black"/>
<path d="M6.31887 8.12109L2.8736 4.67581C2.67853 4.48074 2.3614 4.48074 2.16632 4.67581C1.97125 4.87089 1.97125 5.18802 2.16632 5.38309L5.6116 8.82936C5.70965 8.92638 5.83766 8.97543 5.96573 8.97543C6.09379 8.97543 6.22181 8.92642 6.31887 8.82837C6.51395 8.63325 6.51395 8.31617 6.31887 8.12109Z" fill="black"/>
<path d="M11.2127 7.0097L7.76447 3.56443C7.5694 3.36935 7.25226 3.36935 7.05719 3.56443C6.86212 3.7595 6.86212 4.07663 7.05719 4.2717L10.5045 7.71698C10.6025 7.814 10.7305 7.86305 10.8586 7.86305C10.9867 7.86305 11.1147 7.81405 11.2127 7.71698C11.4078 7.52191 11.4078 7.20478 11.2127 7.0097Z" fill="black"/>
<path d="M16.1026 5.89823L12.6603 2.45197C12.4652 2.2569 12.1481 2.2569 11.953 2.45197C11.7579 2.64704 11.7579 2.96417 11.953 3.15925L15.3953 6.60551C15.4933 6.70253 15.6213 6.75158 15.7494 6.75158C15.8775 6.75158 16.0055 6.70356 16.1026 6.60551C16.2976 6.41044 16.2976 6.0933 16.1026 5.89823Z" fill="black"/>
<path d="M20.9904 4.78788L17.5471 1.34162C17.352 1.14654 17.0349 1.14654 16.8398 1.34162C16.6447 1.53669 16.6447 1.85382 16.8398 2.04889L20.283 5.49516C20.3811 5.59218 20.5091 5.64123 20.6372 5.64123C20.7652 5.64123 20.8932 5.59223 20.9903 5.49516C21.1854 5.30009 21.1854 4.98295 20.9904 4.78788Z" fill="black"/>
</g>
<defs>
<clipPath id="clip0">
<rect width="24" height="24" fill="white"/>
</clipPath>
</defs>
</svg>
