<svg width="24" height="24" viewBox="0 0 24 24" fill="none" xmlns="http://www.w3.org/2000/svg">
<g clip-path="url(#clip0)">
<path d="M23.8815 8.78828L19.96 2.48767C19.8167 2.25761 19.565 2.11774 19.2941 2.11774H4.706C4.43516 2.11774 4.1834 2.25761 4.0401 2.48767L0.118571 8.78828C-0.0696772 9.09076 -0.0307244 9.48188 0.213727 9.74096L11.4293 21.636C11.5775 21.7931 11.7841 21.8823 12 21.8823C12.216 21.8823 12.4225 21.7931 12.5707 21.6358L23.7863 9.74096C24.0305 9.4816 24.0698 9.09076 23.8815 8.78828ZM12.0001 19.9548L1.76954 9.10435L5.1418 3.68635H18.8585L22.2306 9.10435L12.0001 19.9548Z" fill="black"/>
<path d="M23.2157 8.41833H0.784485V9.98695H23.2157V8.41833Z" fill="black"/>
<path d="M8.05653 9.12763L9.26595 3.05526L7.72738 2.74884L6.4725 9.04945C6.44296 9.19846 6.45707 9.35273 6.51356 9.49391L11.2717 21.3892L12.7282 20.8068L8.05653 9.12763Z" fill="black"/>
<path d="M17.5775 8.98641L16.2704 2.8688L14.7365 3.19665L15.9937 9.07974L11.2728 20.8051L12.7277 21.3908L17.5384 9.44339C17.5963 9.29832 17.6102 9.13908 17.5775 8.98641Z" fill="black"/>
</g>
<defs>
<clipPath id="clip0">
<rect width="24" height="24" fill="white"/>
</clipPath>
</defs>
</svg>
