<svg width="24" height="24" viewBox="0 0 24 24" fill="none" xmlns="http://www.w3.org/2000/svg">
<g clip-path="url(#clip0)">
<path d="M16.9091 0C15.0149 0 13.2337 0.737745 11.8956 2.07691L2.07742 11.8951C0.738256 13.2347 0 15.0154 0 16.9091C0 20.8189 3.18109 24.0001 7.09093 24.0001C8.9862 24.0001 10.7664 23.2623 12.1044 21.9231L21.9226 12.1055C23.2628 10.7658 24.0001 8.98507 24.0001 7.09088C24 3.18109 20.8189 0 16.9091 0ZM7.66407 10.9368L4.39134 14.209C3.67011 14.9302 3.27273 15.8896 3.27273 16.9091C3.27273 17.2106 3.02876 17.4546 2.72726 17.4546C2.42576 17.4546 2.18179 17.2106 2.18179 16.9091C2.18179 15.5977 2.69208 14.3651 3.62 13.4377L6.89273 10.1655C7.10581 9.95242 7.45098 9.95242 7.66402 10.1655C7.87715 10.3785 7.87715 10.7237 7.66407 10.9368ZM20.38 10.5628L15.8566 15.0857L8.91471 8.14301L13.4382 3.61949C14.3651 2.69213 15.5977 2.18179 16.9091 2.18179C19.6162 2.18179 21.8182 4.38387 21.8182 7.09088C21.8182 8.40232 21.3079 9.63548 20.38 10.5628Z" fill="black"/>
</g>
<defs>
<clipPath id="clip0">
<rect width="24" height="24" fill="white"/>
</clipPath>
</defs>
</svg>
