<svg width="24" height="24" viewBox="0 0 24 24" fill="none" xmlns="http://www.w3.org/2000/svg">
<path d="M5.53727 13.3796L5.56238 12.7054C5.63673 10.7091 5.94242 9.11487 6.53492 7.99861C7.15014 6.83956 8.09779 6.16923 9.35 6.16923C9.53434 6.16923 9.68344 6.01998 9.68344 5.836V1.83116C9.68344 1.64703 9.53419 1.49793 9.35035 1.49793C7.91914 1.49793 6.6574 1.80202 5.586 2.38336C4.51079 2.96721 3.58811 3.80785 2.8446 4.89141C2.12025 5.94845 1.5612 7.23936 1.19393 8.73802L5.53727 13.3796ZM5.53727 13.3796H6.21193M5.53727 13.3796H6.21193M6.21193 13.3796H9.35M6.21193 13.3796H9.35M19.2488 13.3796L19.2735 12.7058C19.3468 10.7103 19.6478 9.11735 20.2313 8.0021C20.8368 6.84482 21.773 6.1693 23.0165 6.1693C23.2006 6.1693 23.35 6.01964 23.35 5.83607V1.83123C23.35 1.64739 23.2008 1.498 23.0165 1.498C21.586 1.498 20.324 1.80214 19.2531 2.38337C18.1777 2.96719 17.2545 3.80775 16.511 4.89108L19.2488 13.3796ZM19.2488 13.3796H19.9231M19.2488 13.3796H19.9231M19.9231 13.3796H23.0164C23.2001 13.3796 23.3495 13.5288 23.3495 13.713V22.1691C23.3495 22.3528 23.2002 22.5021 23.0164 22.5021H14.6499C14.4656 22.5021 14.3165 22.3527 14.3165 22.1691V13.7131C14.3165 11.8758 14.5017 10.2031 14.8602 8.73853L19.9231 13.3796ZM9.35 13.3796C9.53407 13.3796 9.68344 13.529 9.68344 13.713M9.35 13.3796L9.68344 13.713M9.68344 13.713V22.1691M9.68344 13.713V22.1691M9.68344 22.1691C9.68344 22.3527 9.5344 22.5021 9.35 22.5021M9.68344 22.1691L9.35 22.5021M9.35 22.5021H0.98323M9.35 22.5021H0.98323M0.98323 22.5021C0.799042 22.5021 0.65 22.3528 0.65 22.1691M0.98323 22.5021L0.65 22.1691M0.65 22.1691V13.713M0.65 22.1691V13.713M0.65 13.713C0.65 11.8747 0.835232 10.2021 1.19392 8.73806L0.65 13.713ZM14.8602 8.73838C15.2276 7.23947 15.7866 5.94855 16.5107 4.89152L14.8602 8.73838Z" stroke="black" stroke-width="1.3"/>
</svg>
