<svg width="24" height="24" viewBox="0 0 24 24" fill="none" xmlns="http://www.w3.org/2000/svg">
<path d="M10.3334 1.83116V5.836C10.3334 6.37914 9.89315 6.81923 9.35 6.81923C7.41214 6.81923 6.35803 8.80679 6.21193 12.7296H9.35C9.89315 12.7296 10.3334 13.1701 10.3334 13.713V22.1691C10.3334 22.7119 9.89315 23.1521 9.35 23.1521H0.98323C0.439879 23.1521 0 22.7116 0 22.1691V13.713C0 11.8325 0.189344 10.1068 0.562602 8.58335C0.945416 7.02122 1.53304 5.65538 2.30864 4.52365C3.10672 3.36056 4.10501 2.44787 5.276 1.81205C6.4549 1.17237 7.82583 0.847931 9.35035 0.847931C9.89315 0.847931 10.3334 1.28802 10.3334 1.83116ZM23.0165 6.8193C23.5594 6.8193 24 6.3788 24 5.83607V1.83123C24 1.28808 23.5594 0.848 23.0165 0.848C21.4926 0.848 20.1215 1.17251 18.943 1.81212C17.7718 2.44794 16.7729 3.36063 15.9747 4.52372C15.1994 5.65545 14.6118 7.02136 14.2289 8.58383C13.8558 10.1078 13.6665 11.8335 13.6665 13.7131V22.1691C13.6665 22.712 14.1069 23.1521 14.6499 23.1521H23.0164C23.5593 23.1521 23.9995 22.7117 23.9995 22.1691V13.713C23.9995 13.1702 23.5594 12.7296 23.0164 12.7296H19.9231C20.067 8.80686 21.1057 6.8193 23.0165 6.8193Z" fill="black"/>
</svg>
