<svg width="24" height="24" viewBox="0 0 24 24" fill="none" xmlns="http://www.w3.org/2000/svg">
<path d="M23.1799 9.01627L17.7455 3.58188C17.2972 3.13345 16.8424 2.90622 16.394 2.90622C15.7784 2.90622 15.0593 3.3746 15.0593 4.69443V6.43192C7.35902 6.77066 0.949239 12.6399 0.00533162 20.3489C-0.0336698 20.6665 0.146872 20.9703 0.444418 21.088C0.528647 21.1214 0.616171 21.1375 0.70278 21.1375C0.921957 21.1375 1.13472 21.0348 1.27022 20.8496C3.86446 17.3051 8.02992 15.1889 12.4125 15.1889C13.2955 15.1889 14.1834 15.2754 15.0593 15.4464V17.3044C15.0593 18.6242 15.7784 19.0926 16.394 19.0926H16.3942C16.8426 19.0926 17.2972 18.8651 17.7455 18.4169L23.1799 12.9825C24.2734 11.889 24.2734 10.1098 23.1799 9.01627ZM22.1858 11.9884L16.7514 17.4226C16.6469 17.5272 16.5604 17.5931 16.4967 17.633C16.4799 17.5598 16.4654 17.4521 16.4654 17.3044V14.8789C16.4654 14.5532 16.2413 14.2699 15.9241 14.1949C14.7682 13.9215 13.5868 13.7831 12.4125 13.7831C9.98164 13.7831 7.56355 14.3712 5.41975 15.4843C4.15853 16.1391 2.98848 16.9757 1.95394 17.9564C3.81063 12.0304 9.35212 7.8226 15.7625 7.8226C16.1506 7.8226 16.4654 7.50784 16.4654 7.11948V4.69443C16.4654 4.54666 16.4799 4.439 16.4967 4.36557C16.5604 4.40549 16.6469 4.47159 16.7514 4.57596L22.1858 10.0103C22.7311 10.5556 22.7311 11.443 22.1858 11.9884Z" fill="black"/>
</svg>
